# This file uses centimeters as units for non-parametric coordinates.

g default
v -12.005917 3.860389 -0.879946
v -11.993235 3.235154 -0.280562
v -12.032845 5.187670 -0.280562
v -12.020162 4.562435 -0.879946
v -11.529982 3.870303 -0.879946
v -11.517292 3.244810 -0.280326
v -11.556903 5.197325 -0.280326
v -11.544214 4.571835 -0.879946
v -10.560678 3.502226 -1.470638
v -10.543338 2.647474 -0.615710
v -10.607978 5.833672 -0.615710
v -10.590637 4.978919 -1.470638
v -9.800920 3.517640 -1.470638
v -9.783580 2.662888 -0.615710
v -9.830879 4.994332 -1.470638
v -9.848219 5.849085 -0.615710
v -12.005917 3.860389 1.171134
v -11.993235 3.235154 0.571750
v -12.032845 5.187670 0.571750
v -12.020162 4.562435 1.171134
v -11.529982 3.870303 1.171134
v -11.517292 3.244810 0.571514
v -11.556903 5.197325 0.571514
v -11.544214 4.571835 1.171134
v -10.560678 3.502226 1.761826
v -10.543338 2.647474 0.906898
v -10.607978 5.833672 0.906898
v -10.590637 4.978919 1.761826
v -9.800920 3.517640 1.761826
v -9.783580 2.662888 0.906898
v -9.830879 4.994332 1.761826
v -9.848219 5.849085 0.906898
vt 0.625000 0.182933
vt 0.691777 0.250000
vt 0.625000 0.109443
vt 0.625000 0.109454
vt 0.730855 0.000000
vt 0.730844 0.000000
vt 0.730844 0.250000
vt 0.730855 0.250000
vt 0.625000 0.140546
vt 0.625000 0.250000
vt 0.625000 0.067067
vt 0.691777 0.000000
vt 0.691777 0.250000
vt 0.625000 0.182933
vt 0.625000 0.067067
vt 0.691777 0.000000
vt 0.625000 0.140558
vt 0.625000 0.182933
vt 0.691777 0.250000
vt 0.625000 0.109443
vt 0.730844 0.000000
vt 0.730855 0.000000
vt 0.625000 0.109454
vt 0.730844 0.250000
vt 0.625000 0.250000
vt 0.625000 0.140546
vt 0.730855 0.250000
vt 0.691777 0.000000
vt 0.625000 0.067067
vt 0.625000 0.182933
vt 0.691777 0.250000
vt 0.691777 0.000000
vt 0.625000 0.067067
vt 0.625000 0.140558
vn 0.008569 -0.411616 -0.911317
vn 0.008565 -0.411402 -0.911414
vn 0.018831 -0.918219 -0.395624
vn 0.018829 -0.918129 -0.395833
vn -0.018425 0.918138 -0.395833
vn -0.018427 0.918228 -0.395624
vn -0.008129 0.411412 -0.911413
vn -0.008133 0.411626 -0.911317
vn -0.573222 -0.293529 -0.765021
vn -0.576402 -0.335861 -0.744955
vn -0.575216 -0.759101 -0.304782
vn -0.573307 -0.769166 -0.282318
vn -0.604031 0.745281 -0.282318
vn -0.605530 0.735147 -0.304782
vn -0.589550 0.312206 -0.744955
vn -0.584655 0.270039 -0.765021
vn 0.006982 -0.344145 -0.938891
vn 0.006982 -0.344145 -0.938891
vn 0.019088 -0.940818 -0.338374
vn 0.019088 -0.940818 -0.338374
vn -0.019086 0.940818 -0.338374
vn -0.019086 0.940818 -0.338374
vn -0.006982 0.344145 -0.938891
vn -0.006982 0.344145 -0.938891
vn 0.999794 0.020282 0.000000
vn 0.999794 0.020282 0.000000
vn 0.999794 0.020284 0.000000
vn 0.999794 0.020284 0.000000
vn 0.008569 -0.411616 0.911317
vn 0.018829 -0.918129 0.395833
vn 0.018830 -0.918219 0.395624
vn 0.008565 -0.411402 0.911414
vn -0.018425 0.918138 0.395833
vn -0.008133 0.411626 0.911317
vn -0.008129 0.411412 0.911413
vn -0.018427 0.918228 0.395624
vn -0.573222 -0.293529 0.765021
vn -0.573307 -0.769166 0.282318
vn -0.575216 -0.759101 0.304782
vn -0.576402 -0.335861 0.744955
vn -0.604031 0.745281 0.282318
vn -0.584656 0.270039 0.765021
vn -0.589550 0.312206 0.744955
vn -0.605531 0.735147 0.304782
vn 0.006982 -0.344145 0.938891
vn 0.019088 -0.940818 0.338374
vn 0.019088 -0.940818 0.338374
vn 0.006982 -0.344145 0.938891
vn -0.019086 0.940818 0.338374
vn -0.006982 0.344145 0.938891
vn -0.006982 0.344145 0.938891
vn -0.019086 0.940818 0.338374
vn 0.999794 0.020284 0.000000
vn 0.999794 0.020284 0.000000
vn 0.999794 0.020283 0.000000
vn 0.999794 0.020283 0.000000
s 1
g polySurface48
f 1/3/1 5/4/2 6/5/3 2/6/4
f 3/7/5 7/8/6 8/9/7 4/10/8
s 3
f 5/4/9 9/11/10 10/12/11 6/5/12
f 7/8/13 11/13/14 12/14/15 8/9/16
s 5
f 9/11/17 13/15/18 14/16/19 10/12/20
f 11/13/21 16/2/22 15/1/23 12/14/24
s 1
f 4/17/8 8/9/7 5/4/2 1/3/1
s 3
f 8/9/16 12/14/15 9/11/10 5/4/9
s 5
f 12/14/24 15/1/23 13/15/18 9/11/17
s 7
f 16/2/25 32/19/26 31/18/27 15/1/28
s 1
f 17/20/29 18/21/30 22/22/31 21/23/32
f 19/24/33 20/25/34 24/26/35 23/27/36
s 3
f 21/23/37 22/22/38 26/28/39 25/29/40
f 23/27/41 24/26/42 28/30/43 27/31/44
s 5
f 25/29/45 26/28/46 30/32/47 29/33/48
f 27/31/49 28/30/50 31/18/51 32/19/52
s 1
f 6/5/3 22/22/31 18/21/30 2/6/4
f 3/7/5 19/24/33 23/27/36 7/8/6
f 20/34/34 17/20/29 21/23/32 24/26/35
s 3
f 10/12/11 26/28/39 22/22/38 6/5/12
f 7/8/13 23/27/41 27/31/44 11/13/14
f 24/26/42 21/23/37 25/29/40 28/30/43
s 5
f 14/16/19 30/32/47 26/28/46 10/12/20
f 11/13/21 27/31/49 32/19/52 16/2/22
f 28/30/50 25/29/45 29/33/48 31/18/51
s 7
f 13/15/53 29/33/54 30/32/55 14/16/56
f 15/1/28 31/18/27 29/33/54 13/15/53
